<svg width="365" height="273" viewBox="0 0 365 273" fill="none" xmlns="http://www.w3.org/2000/svg">
<path d="M360.416 261.898H325.032L188.338 52.0549L216.393 8.98793C217.959 6.58102 217.619 3.09262 215.631 1.19257C213.65 -0.702063 210.763 -0.298539 209.194 2.1138L182.5 43.0927L155.806 2.1138C154.241 -0.293118 151.352 -0.696642 149.369 1.19257C147.381 3.09262 147.041 6.58102 148.607 8.98793L176.662 52.0549L39.9677 261.898H4.58404C2.05224 261.898 0 264.384 0 267.449C0 270.515 2.05224 273 4.58404 273H360.416C362.947 273 365 270.515 365 267.449C365 264.384 362.947 261.898 360.416 261.898ZM141.206 261.898L182.5 164.936L223.794 261.898H141.206Z" fill="white"/>
</svg>
